<mxfile host="Electron" modified="2024-01-12T19:59:07.440Z" agent="Mozilla/5.0 (Windows NT 10.0; Win64; x64) AppleWebKit/537.36 (KHTML, like Gecko) draw.io/22.1.16 Chrome/120.0.6099.109 Electron/28.1.0 Safari/537.36" etag="EGX07YWRnJowVoQvNFbo" version="22.1.16" type="device">
  <diagram name="Страница — 1" id="R87gwawpsRX5DZW33Yvw">
    <mxGraphModel dx="1727" dy="-1315" grid="1" gridSize="10" guides="1" tooltips="1" connect="1" arrows="1" fold="1" page="1" pageScale="1" pageWidth="827" pageHeight="1169" math="0" shadow="0">
      <root>
        <mxCell id="0" />
        <mxCell id="1" parent="0" />
        <mxCell id="hZTHAR6i0K3fFT6IlkUh-271" value="Алгорит рассчета скаллирования урона (АРСУ)" style="swimlane;whiteSpace=wrap;html=1;" vertex="1" parent="1">
          <mxGeometry x="80" y="2420" width="630" height="620" as="geometry" />
        </mxCell>
        <mxCell id="hZTHAR6i0K3fFT6IlkUh-272" style="edgeStyle=orthogonalEdgeStyle;rounded=0;orthogonalLoop=1;jettySize=auto;html=1;exitX=0;exitY=0.5;exitDx=0;exitDy=0;entryX=0.5;entryY=0;entryDx=0;entryDy=0;" edge="1" parent="hZTHAR6i0K3fFT6IlkUh-271" source="hZTHAR6i0K3fFT6IlkUh-273" target="hZTHAR6i0K3fFT6IlkUh-284">
          <mxGeometry relative="1" as="geometry">
            <Array as="points">
              <mxPoint x="160" y="70" />
              <mxPoint x="160" y="40" />
              <mxPoint x="80" y="40" />
            </Array>
          </mxGeometry>
        </mxCell>
        <mxCell id="hZTHAR6i0K3fFT6IlkUh-273" value="Массив множителей (ММ)" style="ellipse;whiteSpace=wrap;html=1;aspect=fixed;" vertex="1" parent="hZTHAR6i0K3fFT6IlkUh-271">
          <mxGeometry x="180" y="30" width="80" height="80" as="geometry" />
        </mxCell>
        <mxCell id="hZTHAR6i0K3fFT6IlkUh-274" style="edgeStyle=orthogonalEdgeStyle;rounded=0;orthogonalLoop=1;jettySize=auto;html=1;exitX=0.5;exitY=1;exitDx=0;exitDy=0;entryX=0.5;entryY=0;entryDx=0;entryDy=0;" edge="1" parent="hZTHAR6i0K3fFT6IlkUh-271" source="hZTHAR6i0K3fFT6IlkUh-275" target="hZTHAR6i0K3fFT6IlkUh-277">
          <mxGeometry relative="1" as="geometry" />
        </mxCell>
        <mxCell id="hZTHAR6i0K3fFT6IlkUh-275" value="int i = 0&amp;nbsp;" style="rounded=0;whiteSpace=wrap;html=1;" vertex="1" parent="hZTHAR6i0K3fFT6IlkUh-271">
          <mxGeometry x="20" y="140" width="120" height="60" as="geometry" />
        </mxCell>
        <mxCell id="hZTHAR6i0K3fFT6IlkUh-276" style="edgeStyle=orthogonalEdgeStyle;rounded=0;orthogonalLoop=1;jettySize=auto;html=1;exitX=0.5;exitY=1;exitDx=0;exitDy=0;entryX=0.5;entryY=0;entryDx=0;entryDy=0;" edge="1" parent="hZTHAR6i0K3fFT6IlkUh-271" source="hZTHAR6i0K3fFT6IlkUh-277" target="hZTHAR6i0K3fFT6IlkUh-280">
          <mxGeometry relative="1" as="geometry" />
        </mxCell>
        <mxCell id="hZTHAR6i0K3fFT6IlkUh-277" value="Взять i-тый элемент массива" style="rounded=0;whiteSpace=wrap;html=1;" vertex="1" parent="hZTHAR6i0K3fFT6IlkUh-271">
          <mxGeometry x="20" y="210" width="120" height="60" as="geometry" />
        </mxCell>
        <mxCell id="hZTHAR6i0K3fFT6IlkUh-278" style="edgeStyle=orthogonalEdgeStyle;rounded=0;orthogonalLoop=1;jettySize=auto;html=1;exitX=0.5;exitY=1;exitDx=0;exitDy=0;entryX=0.5;entryY=0;entryDx=0;entryDy=0;" edge="1" parent="hZTHAR6i0K3fFT6IlkUh-271" source="hZTHAR6i0K3fFT6IlkUh-280" target="hZTHAR6i0K3fFT6IlkUh-282">
          <mxGeometry relative="1" as="geometry">
            <mxPoint x="79.63157894736833" y="370" as="targetPoint" />
          </mxGeometry>
        </mxCell>
        <mxCell id="hZTHAR6i0K3fFT6IlkUh-279" style="edgeStyle=orthogonalEdgeStyle;rounded=0;orthogonalLoop=1;jettySize=auto;html=1;exitX=1;exitY=0.5;exitDx=0;exitDy=0;entryX=-0.015;entryY=0.501;entryDx=0;entryDy=0;entryPerimeter=0;" edge="1" parent="hZTHAR6i0K3fFT6IlkUh-271" source="hZTHAR6i0K3fFT6IlkUh-280" target="hZTHAR6i0K3fFT6IlkUh-287">
          <mxGeometry relative="1" as="geometry">
            <mxPoint x="190" y="320" as="targetPoint" />
            <Array as="points">
              <mxPoint x="160" y="320" />
              <mxPoint x="160" y="290" />
              <mxPoint x="188" y="290" />
            </Array>
          </mxGeometry>
        </mxCell>
        <mxCell id="hZTHAR6i0K3fFT6IlkUh-280" value="Проверить количество = 1" style="shape=rhombus;perimeter=rhombusPerimeter;whiteSpace=wrap;html=1;align=center;" vertex="1" parent="hZTHAR6i0K3fFT6IlkUh-271">
          <mxGeometry x="20" y="290" width="120" height="60" as="geometry" />
        </mxCell>
        <mxCell id="hZTHAR6i0K3fFT6IlkUh-281" style="edgeStyle=orthogonalEdgeStyle;rounded=0;orthogonalLoop=1;jettySize=auto;html=1;exitX=0.5;exitY=1;exitDx=0;exitDy=0;entryX=0.5;entryY=0;entryDx=0;entryDy=0;" edge="1" parent="hZTHAR6i0K3fFT6IlkUh-271" source="hZTHAR6i0K3fFT6IlkUh-282" target="hZTHAR6i0K3fFT6IlkUh-286">
          <mxGeometry relative="1" as="geometry" />
        </mxCell>
        <mxCell id="hZTHAR6i0K3fFT6IlkUh-282" value="Запросить из справочника предметов по id предмета значение его Множителя влияния" style="rounded=0;whiteSpace=wrap;html=1;" vertex="1" parent="hZTHAR6i0K3fFT6IlkUh-271">
          <mxGeometry x="20" y="380" width="120" height="123" as="geometry" />
        </mxCell>
        <mxCell id="hZTHAR6i0K3fFT6IlkUh-283" style="edgeStyle=orthogonalEdgeStyle;rounded=0;orthogonalLoop=1;jettySize=auto;html=1;exitX=0.5;exitY=1;exitDx=0;exitDy=0;entryX=0.5;entryY=0;entryDx=0;entryDy=0;" edge="1" parent="hZTHAR6i0K3fFT6IlkUh-271" source="hZTHAR6i0K3fFT6IlkUh-284" target="hZTHAR6i0K3fFT6IlkUh-275">
          <mxGeometry relative="1" as="geometry" />
        </mxCell>
        <mxCell id="hZTHAR6i0K3fFT6IlkUh-284" value="Инициировать переменную множителя" style="rounded=0;whiteSpace=wrap;html=1;" vertex="1" parent="hZTHAR6i0K3fFT6IlkUh-271">
          <mxGeometry x="20" y="70" width="120" height="60" as="geometry" />
        </mxCell>
        <mxCell id="hZTHAR6i0K3fFT6IlkUh-285" style="edgeStyle=orthogonalEdgeStyle;rounded=0;orthogonalLoop=1;jettySize=auto;html=1;exitX=1;exitY=0.5;exitDx=0;exitDy=0;" edge="1" parent="hZTHAR6i0K3fFT6IlkUh-271" source="hZTHAR6i0K3fFT6IlkUh-286">
          <mxGeometry relative="1" as="geometry">
            <mxPoint x="230" y="565" as="targetPoint" />
          </mxGeometry>
        </mxCell>
        <mxCell id="hZTHAR6i0K3fFT6IlkUh-286" value="Переменная множителя += Множитель влияния" style="rounded=0;whiteSpace=wrap;html=1;" vertex="1" parent="hZTHAR6i0K3fFT6IlkUh-271">
          <mxGeometry x="20" y="520" width="120" height="90" as="geometry" />
        </mxCell>
        <mxCell id="hZTHAR6i0K3fFT6IlkUh-287" value="Запросить из справочника предметов по id предмета значение его Прибавки влияния" style="rounded=0;whiteSpace=wrap;html=1;" vertex="1" parent="hZTHAR6i0K3fFT6IlkUh-271">
          <mxGeometry x="190" y="230" width="120" height="130" as="geometry" />
        </mxCell>
        <mxCell id="hZTHAR6i0K3fFT6IlkUh-288" style="edgeStyle=orthogonalEdgeStyle;rounded=0;orthogonalLoop=1;jettySize=auto;html=1;exitX=0;exitY=0.5;exitDx=0;exitDy=0;entryX=1;entryY=0.5;entryDx=0;entryDy=0;" edge="1" parent="hZTHAR6i0K3fFT6IlkUh-271" source="hZTHAR6i0K3fFT6IlkUh-289" target="hZTHAR6i0K3fFT6IlkUh-282">
          <mxGeometry relative="1" as="geometry" />
        </mxCell>
        <mxCell id="hZTHAR6i0K3fFT6IlkUh-289" value="Переменная множителя&amp;nbsp; += (Количество предметов -1) * ПРибавку влияния" style="rounded=0;whiteSpace=wrap;html=1;" vertex="1" parent="hZTHAR6i0K3fFT6IlkUh-271">
          <mxGeometry x="190" y="387.25" width="120" height="108.5" as="geometry" />
        </mxCell>
        <mxCell id="hZTHAR6i0K3fFT6IlkUh-290" style="edgeStyle=orthogonalEdgeStyle;rounded=0;orthogonalLoop=1;jettySize=auto;html=1;exitX=0.5;exitY=1;exitDx=0;exitDy=0;" edge="1" parent="hZTHAR6i0K3fFT6IlkUh-271" source="hZTHAR6i0K3fFT6IlkUh-287" target="hZTHAR6i0K3fFT6IlkUh-289">
          <mxGeometry relative="1" as="geometry">
            <mxPoint x="260.2222222222226" y="430" as="targetPoint" />
          </mxGeometry>
        </mxCell>
        <mxCell id="hZTHAR6i0K3fFT6IlkUh-291" value="АРУ" style="rounded=0;whiteSpace=wrap;html=1;" vertex="1" parent="hZTHAR6i0K3fFT6IlkUh-271">
          <mxGeometry x="480" y="535" width="120" height="60" as="geometry" />
        </mxCell>
        <mxCell id="hZTHAR6i0K3fFT6IlkUh-292" style="edgeStyle=orthogonalEdgeStyle;rounded=0;orthogonalLoop=1;jettySize=auto;html=1;exitX=1;exitY=0.5;exitDx=0;exitDy=0;entryX=0;entryY=0.5;entryDx=0;entryDy=0;" edge="1" parent="hZTHAR6i0K3fFT6IlkUh-271" source="hZTHAR6i0K3fFT6IlkUh-295" target="hZTHAR6i0K3fFT6IlkUh-291">
          <mxGeometry relative="1" as="geometry" />
        </mxCell>
        <mxCell id="hZTHAR6i0K3fFT6IlkUh-293" value="Множитель" style="edgeLabel;html=1;align=center;verticalAlign=middle;resizable=0;points=[];" vertex="1" connectable="0" parent="hZTHAR6i0K3fFT6IlkUh-292">
          <mxGeometry relative="1" as="geometry">
            <mxPoint x="25" as="offset" />
          </mxGeometry>
        </mxCell>
        <mxCell id="hZTHAR6i0K3fFT6IlkUh-294" value="Да" style="edgeLabel;html=1;align=center;verticalAlign=middle;resizable=0;points=[];" vertex="1" connectable="0" parent="hZTHAR6i0K3fFT6IlkUh-292">
          <mxGeometry x="-0.8154" y="-1" relative="1" as="geometry">
            <mxPoint as="offset" />
          </mxGeometry>
        </mxCell>
        <mxCell id="hZTHAR6i0K3fFT6IlkUh-295" value="i == длине ММ ?" style="shape=rhombus;perimeter=rhombusPerimeter;whiteSpace=wrap;html=1;align=center;" vertex="1" parent="hZTHAR6i0K3fFT6IlkUh-271">
          <mxGeometry x="230" y="535" width="120" height="60" as="geometry" />
        </mxCell>
        <mxCell id="hZTHAR6i0K3fFT6IlkUh-296" style="edgeStyle=orthogonalEdgeStyle;rounded=0;orthogonalLoop=1;jettySize=auto;html=1;exitX=0.5;exitY=0;exitDx=0;exitDy=0;entryX=1;entryY=0.5;entryDx=0;entryDy=0;" edge="1" parent="hZTHAR6i0K3fFT6IlkUh-271" source="hZTHAR6i0K3fFT6IlkUh-297" target="hZTHAR6i0K3fFT6IlkUh-275">
          <mxGeometry relative="1" as="geometry" />
        </mxCell>
        <mxCell id="hZTHAR6i0K3fFT6IlkUh-297" value="i++" style="rounded=0;whiteSpace=wrap;html=1;" vertex="1" parent="hZTHAR6i0K3fFT6IlkUh-271">
          <mxGeometry x="390" y="411.5" width="120" height="60" as="geometry" />
        </mxCell>
        <mxCell id="hZTHAR6i0K3fFT6IlkUh-298" style="edgeStyle=orthogonalEdgeStyle;rounded=0;orthogonalLoop=1;jettySize=auto;html=1;exitX=0.5;exitY=0;exitDx=0;exitDy=0;" edge="1" parent="hZTHAR6i0K3fFT6IlkUh-271" source="hZTHAR6i0K3fFT6IlkUh-295" target="hZTHAR6i0K3fFT6IlkUh-297">
          <mxGeometry relative="1" as="geometry">
            <mxPoint x="450" y="480" as="targetPoint" />
          </mxGeometry>
        </mxCell>
        <mxCell id="hZTHAR6i0K3fFT6IlkUh-299" value="Нет" style="edgeLabel;html=1;align=center;verticalAlign=middle;resizable=0;points=[];" vertex="1" connectable="0" parent="hZTHAR6i0K3fFT6IlkUh-298">
          <mxGeometry x="-0.8336" y="2" relative="1" as="geometry">
            <mxPoint as="offset" />
          </mxGeometry>
        </mxCell>
      </root>
    </mxGraphModel>
  </diagram>
</mxfile>
